<svg width="140" height="140" viewBox="0 0 140 140" fill="none" xmlns="http://www.w3.org/2000/svg">
<path fill-rule="evenodd" clip-rule="evenodd" d="M50.4232 131.493C37.8767 123.977 21.7676 110.034 1.12378 87.646L10.133 79.3388C30.5049 101.432 45.6753 114.364 56.7206 120.98C68.1114 127.804 73.18 126.838 75.18 125.575C77.5981 124.047 79.7996 119.693 80.3024 111.276C80.7756 103.355 79.6098 93.7672 77.6329 84.8133L75.5634 75.4397L84.9371 77.5092C93.891 79.486 103.479 80.6518 111.399 80.1787C119.816 79.6758 124.17 77.4744 125.698 75.0562C126.962 73.0562 127.928 67.9876 121.104 56.5968C114.488 45.5515 101.556 30.3812 79.4625 10.0092L87.7697 1C110.158 21.6438 124.101 37.7529 131.617 50.2994C138.926 62.5005 141.281 73.3364 136.058 81.6024C131.099 89.4502 121.089 91.8762 112.13 92.4115C105.547 92.8047 98.312 92.2525 91.2906 91.1668C92.3763 98.1882 92.9285 105.423 92.5352 112.006C92 120.965 89.574 130.975 81.7262 135.934C73.4602 141.157 62.6243 138.802 50.4232 131.493Z" fill="white" stroke="black"/>
</svg>
