<?xml version="1.0" encoding="UTF-8" standalone="no"?><!-- Generator: Gravit.io -->
<svg xmlns="http://www.w3.org/2000/svg"
  xmlns:xlink="http://www.w3.org/1999/xlink" style="isolation:isolate" viewBox="0 0 512 512" width="512pt" height="512pt">
  <defs>
    <clipPath id="_clipPath_ezBYPjHOfzmHnBYE2tIE8f6Qf5p8Wjf5">
      <rect width="512" height="512"/>
    </clipPath>
  </defs>
  <g clip-path="url(#_clipPath_ezBYPjHOfzmHnBYE2tIE8f6Qf5p8Wjf5)">
    <path d=" M 186.079 476.073 C 141.267 449.228 83.732 399.429 10 319.467 L 42.177 289.797 C 114.938 368.706 169.121 414.894 208.571 438.524 C 249.254 462.897 267.358 459.447 274.501 454.936 C 283.137 449.478 291 433.928 292.796 403.865 C 294.486 375.574 290.322 341.33 283.262 309.35 L 275.87 275.871 L 309.35 283.262 C 341.329 290.323 375.576 294.487 403.863 292.797 C 433.925 291.001 449.476 283.138 454.933 274.501 C 459.448 267.358 462.895 249.255 438.525 208.571 C 414.892 169.121 368.707 114.939 289.796 42.178 L 319.466 10 C 399.43 83.732 449.23 141.268 476.07 186.079 C 502.175 229.657 510.59 268.359 491.935 297.882 C 474.224 325.911 438.472 334.576 406.474 336.488 C 382.962 337.892 357.12 335.92 332.042 332.042 C 335.92 357.12 337.892 382.96 336.487 406.472 C 334.576 438.471 325.911 474.223 297.881 491.934 C 268.358 510.589 229.657 502.178 186.079 476.073 Z " fill-rule="evenodd" fill="rgb(217,119,6)"/>
  </g>
</svg>